<?xml version="1.0" encoding="UTF-8" standalone="no"?>
<!-- Created with Inkscape (http://www.inkscape.org/) -->

<svg
   xmlns:dc="http://purl.org/dc/elements/1.1/"
   xmlns:cc="http://creativecommons.org/ns#"
   xmlns:rdf="http://www.w3.org/1999/02/22-rdf-syntax-ns#"
   xmlns:svg="http://www.w3.org/2000/svg"
   xmlns="http://www.w3.org/2000/svg"
   xmlns:sodipodi="http://sodipodi.sourceforge.net/DTD/sodipodi-0.dtd"
   xmlns:inkscape="http://www.inkscape.org/namespaces/inkscape"
   width="800"
   height="600"
   id="svg2"
   version="1.1"
   inkscape:version="0.48.4 r9939"
   sodipodi:docname="room.svg">
  <defs
     id="defs4" />
  <sodipodi:namedview
     id="base"
     pagecolor="#ffffff"
     bordercolor="#666666"
     borderopacity="1.0"
     inkscape:pageopacity="0.0"
     inkscape:pageshadow="2"
     inkscape:zoom="0.80320446"
     inkscape:cx="540.92308"
     inkscape:cy="332.64323"
     inkscape:document-units="px"
     inkscape:current-layer="layer4"
     showgrid="false"
     width="1052.36px"
     inkscape:object-paths="false"
     inkscape:snap-intersection-paths="true"
     inkscape:window-width="1600"
     inkscape:window-height="838"
     inkscape:window-x="-8"
     inkscape:window-y="-8"
     inkscape:window-maximized="1">
    <inkscape:grid
       type="xygrid"
       id="grid3018"
       empspacing="5"
       visible="true"
       enabled="true"
       snapvisiblegridlinesonly="true" />
  </sodipodi:namedview>
  <metadata
     id="metadata7">
    <rdf:RDF>
      <cc:Work
         rdf:about="">
        <dc:format>image/svg+xml</dc:format>
        <dc:type
           rdf:resource="http://purl.org/dc/dcmitype/StillImage" />
        <dc:title />
      </cc:Work>
    </rdf:RDF>
  </metadata>
  <g
     inkscape:label="Layer 1"
     inkscape:groupmode="layer"
     id="layer1"
     transform="translate(0,-452.36221)" />
  <g
     inkscape:groupmode="layer"
     id="layer2"
     inkscape:label="BG"
     transform="translate(0,-144.09451)">
    <rect
       style="fill:#999999"
       id="rect2986"
       width="1052.036"
       height="744.51776"
       x="0"
       y="-0.42329845" />
    <path
       style="fill:#800000"
       d="m -3.1476105,389.66352 0,-371.636382 525.3954905,0 525.39552,0 0,371.636382 0,371.63638 -525.39552,0 -525.3954905,0 0,-371.63638 z"
       id="path2988"
       inkscape:connector-curvature="0" />
    <path
       style="fill:#550000"
       d="m 333.72302,161.60445 276.27698,0 0,272.49003 -276.27698,0 z"
       id="rect3020"
       inkscape:connector-curvature="0" />
    <rect
       style="fill:#550000"
       id="rect3023"
       width="150"
       height="130"
       x="610"
       y="304.09448" />
    <rect
       style="fill:#550000"
       id="rect3025"
       width="400"
       height="250"
       x="420"
       y="124.09448" />
    <rect
       style="fill:#550000"
       id="rect3027"
       width="240"
       height="320"
       x="750"
       y="194.09448" />
    <rect
       style="fill:#550000"
       id="rect3029"
       width="610"
       height="280"
       x="30"
       y="244.09448" />
    <path
       sodipodi:type="arc"
       style="fill:#550000"
       id="path3048"
       sodipodi:cx="205"
       sodipodi:cy="324.09448"
       sodipodi:rx="65"
       sodipodi:ry="60"
       d="m 270,324.09448 c 0,33.13709 -29.10149,60 -65,60 -35.89851,0 -65,-26.86291 -65,-60 0,-33.13708 29.10149,-60 65,-60 35.89851,0 65,26.86292 65,60 z" />
    <g
       id="g3091"
       style="opacity:0.43800001">
      <g
         id="g3076">
        <rect
           style="fill:#ff8080"
           id="rect3070"
           width="260"
           height="180"
           x="220"
           y="-15.905518" />
        <rect
           style="fill:#ff8080"
           id="rect3072"
           width="290"
           height="190"
           x="350"
           y="74.094482" />
        <rect
           style="fill:#ff8080"
           id="rect3074"
           width="370"
           height="200"
           x="420"
           y="-25.905518" />
      </g>
      <rect
         y="124.09448"
         x="290"
         height="100"
         width="90"
         id="rect3081"
         style="fill:#ff8080" />
      <rect
         y="24.094482"
         x="600"
         height="200"
         width="210"
         id="rect3089"
         style="fill:#ff8080" />
    </g>
    <path
       sodipodi:type="arc"
       style="fill:#000000"
       id="path3142"
       sodipodi:cx="890"
       sodipodi:cy="454.09448"
       sodipodi:rx="100"
       sodipodi:ry="90"
       d="m 990,454.09448 c 0,49.70563 -44.77153,90 -100,90 -55.22847,0 -100,-40.29437 -100,-90 0,-49.70563 44.77153,-90 100,-90 55.22847,0 100,40.29437 100,90 z" />
    <path
       sodipodi:type="arc"
       style="fill:#000000"
       id="path3144"
       sodipodi:cx="885"
       sodipodi:cy="644.09448"
       sodipodi:rx="75"
       sodipodi:ry="140"
       d="m 960,644.09448 c 0,77.31987 -33.57864,140 -75,140 -41.42136,0 -75,-62.68013 -75,-140 0,-77.31986 33.57864,-140 75,-140 41.42136,0 75,62.68014 75,140 z" />
    <path
       sodipodi:type="arc"
       style="fill:#000000"
       id="path3154"
       sodipodi:cx="770"
       sodipodi:cy="749.09448"
       sodipodi:rx="100"
       sodipodi:ry="35"
       d="m 870,749.09448 c 0,19.32997 -44.77153,35 -100,35 -55.22847,0 -100,-15.67003 -100,-35 0,-19.32996 44.77153,-35 100,-35 55.22847,0 100,15.67004 100,35 z" />
    <path
       sodipodi:type="arc"
       style="fill:#000000"
       id="path3156"
       sodipodi:cx="700"
       sodipodi:cy="784.09448"
       sodipodi:rx="40"
       sodipodi:ry="40"
       d="m 740,784.09448 c 0,22.09139 -17.90861,40 -40,40 -22.09139,0 -40,-17.90861 -40,-40 0,-22.09139 17.90861,-40 40,-40 22.09139,0 40,17.90861 40,40 z" />
    <path
       style="fill:#000000;stroke:#000000;stroke-width:1px;stroke-linecap:butt;stroke-linejoin:miter;stroke-opacity:1"
       d="m 990,474.09448 20,-20 -10,-30 0,-20 -20,-20 -30,-30 -10,0 -20,0 c 0,0 -20,-10 -30,-10 -10,0 -30,0 -30,0 0,0 -20,0 -20,0 l -40,0 -10,0 -20,20 -10,10 10,10 20,-10 20,10"
       id="path3164"
       inkscape:connector-curvature="0" />
  </g>
  <g
     inkscape:groupmode="layer"
     id="layer4"
     inkscape:label="Objects"
     transform="translate(0,-144.09451)">
    <rect
       style="fill:#2b1100"
       id="rect3169"
       width="470"
       height="50"
       x="320"
       y="604.09448" />
    <rect
       style="fill:#2b1100"
       id="rect3171"
       width="60"
       height="150"
       x="520"
       y="644.09448" />
    <rect
       style="fill:#2b1100"
       id="rect3173"
       width="50"
       height="310"
       x="50"
       y="454.09448" />
    <rect
       style="fill:#2b1100"
       id="rect3175"
       width="50"
       height="260"
       x="960"
       y="544.09448" />
  </g>
  <g
     inkscape:groupmode="layer"
     id="layer3"
     inkscape:label="People"
     transform="translate(0,-144.09451)">
    <path
       sodipodi:type="arc"
       style="fill:#000000"
       id="path3102"
       sodipodi:cx="225"
       sodipodi:cy="424.09448"
       sodipodi:rx="105"
       sodipodi:ry="90"
       d="m 330,424.09448 c 0,49.70563 -47.0101,90 -105,90 -57.9899,0 -105,-40.29437 -105,-90 0,-49.70563 47.0101,-90 105,-90 57.9899,0 105,40.29437 105,90 z"
       transform="matrix(1.0237145,0,0,1.1660017,-5.33577,-70.40042)" />
    <rect
       style="fill:#000000"
       id="rect3104"
       width="128.88292"
       height="333.53555"
       x="150"
       y="464.09448" />
    <path
       sodipodi:type="arc"
       style="fill:#000000"
       id="path3106"
       sodipodi:cx="160"
       sodipodi:cy="644.09448"
       sodipodi:rx="60"
       sodipodi:ry="130"
       d="m 220,644.09448 c 0,71.79702 -26.86292,130 -60,130 -33.13708,0 -60,-58.20298 -60,-130 0,-71.79702 26.86292,-130 60,-130 33.13708,0 60,58.20298 60,130 z" />
    <path
       sodipodi:type="arc"
       style="fill:#000000"
       id="path3108"
       sodipodi:cx="349.10236"
       sodipodi:cy="775.15997"
       sodipodi:rx="99.102341"
       sodipodi:ry="61.065483"
       d="m 448.2047,775.15997 c 0,33.72554 -44.36963,61.06549 -99.10234,61.06549 -54.73272,0 -99.10234,-27.33995 -99.10234,-61.06549 0,-33.72553 44.36962,-61.06548 99.10234,-61.06548 54.73271,0 99.10234,27.33995 99.10234,61.06548 z" />
    <path
       sodipodi:type="arc"
       style="fill:#000000"
       id="path3132"
       sodipodi:cx="270"
       sodipodi:cy="664.09448"
       sodipodi:rx="20"
       sodipodi:ry="80"
       d="m 290,664.09448 c 0,44.18278 -8.95431,80 -20,80 -11.04569,0 -20,-35.81722 -20,-80 0,-44.18278 8.95431,-80 20,-80 11.04569,0 20,35.81722 20,80 z" />
    <path
       style="fill:#000000;stroke:#000000;stroke-width:1px;stroke-linecap:butt;stroke-linejoin:miter;stroke-opacity:1"
       d="m 120,334.09448 250,50 10,-20 -60,-30 -20,-70 -110,-10 -40,50 -30,0 z"
       id="path3136"
       inkscape:connector-curvature="0" />
  </g>
</svg>
